<?xml version="1.0" encoding="UTF-8" standalone="no"?>
<!-- Created with Inkscape (http://www.inkscape.org/) -->

<svg
   width="127.90808"
   height="128.13818"
   viewBox="0 0 33.842346 33.903228"
   version="1.1"
   id="svg1"
   xml:space="preserve"
   inkscape:version="1.3 (0e150ed6c4, 2023-07-21)"
   sodipodi:docname="Rose.svg"
   inkscape:export-filename="../FartEngine_Main/fart_data/png/PurpleRose.png"
   inkscape:export-xdpi="96"
   inkscape:export-ydpi="96"
   xmlns:inkscape="http://www.inkscape.org/namespaces/inkscape"
   xmlns:sodipodi="http://sodipodi.sourceforge.net/DTD/sodipodi-0.dtd"
   xmlns:xlink="http://www.w3.org/1999/xlink"
   xmlns="http://www.w3.org/2000/svg"
   xmlns:svg="http://www.w3.org/2000/svg"><sodipodi:namedview
     id="namedview1"
     pagecolor="#505050"
     bordercolor="#eeeeee"
     borderopacity="1"
     inkscape:showpageshadow="0"
     inkscape:pageopacity="0"
     inkscape:pagecheckerboard="0"
     inkscape:deskcolor="#505050"
     inkscape:document-units="px"
     showgrid="false"
     inkscape:zoom="2.0535659"
     inkscape:cx="-1528.0737"
     inkscape:cy="-3382.6526"
     inkscape:window-width="1920"
     inkscape:window-height="1012"
     inkscape:window-x="0"
     inkscape:window-y="0"
     inkscape:window-maximized="1"
     inkscape:current-layer="layer1"
     showguides="false"><inkscape:grid
       id="grid1"
       units="mm"
       originx="1574.6389"
       originy="3460.4558"
       spacingx="0.99999998"
       spacingy="1"
       empcolor="#0099e5"
       empopacity="0.30196078"
       color="#0099e5"
       opacity="0.14901961"
       empspacing="5"
       dotted="false"
       gridanglex="30"
       gridanglez="30"
       visible="false" /></sodipodi:namedview><defs
     id="defs1"><linearGradient
       id="linearGradient79"
       inkscape:collect="always"><stop
         style="stop-color:#280038;stop-opacity:1;"
         offset="0"
         id="stop78" /><stop
         style="stop-color:#5c007b;stop-opacity:1;"
         offset="1"
         id="stop79" /></linearGradient><linearGradient
       id="linearGradient76"
       inkscape:collect="always"><stop
         style="stop-color:#280038;stop-opacity:1;"
         offset="0"
         id="stop76" /><stop
         style="stop-color:#a700e5;stop-opacity:1;"
         offset="1"
         id="stop77" /></linearGradient><linearGradient
       id="linearGradient74"
       inkscape:collect="always"><stop
         style="stop-color:#2b0033;stop-opacity:1;"
         offset="0"
         id="stop74" /><stop
         style="stop-color:#8600b9;stop-opacity:1;"
         offset="1"
         id="stop75" /></linearGradient><linearGradient
       id="linearGradient72"
       inkscape:collect="always"><stop
         style="stop-color:#3b084d;stop-opacity:1;"
         offset="0"
         id="stop72" /><stop
         style="stop-color:#ca45ff;stop-opacity:1;"
         offset="1"
         id="stop73" /></linearGradient><linearGradient
       id="linearGradient70"
       inkscape:collect="always"><stop
         style="stop-color:#060606;stop-opacity:1;"
         offset="0"
         id="stop70" /><stop
         style="stop-color:#d45aff;stop-opacity:1;"
         offset="1"
         id="stop71" /></linearGradient><linearGradient
       id="linearGradient68"
       inkscape:collect="always"><stop
         style="stop-color:#d259ff;stop-opacity:1;"
         offset="0"
         id="stop68" /><stop
         style="stop-color:#4e006f;stop-opacity:1;"
         offset="1"
         id="stop69" /></linearGradient><linearGradient
       id="linearGradient66"
       inkscape:collect="always"><stop
         style="stop-color:#610087;stop-opacity:1;"
         offset="0"
         id="stop66" /><stop
         style="stop-color:#ce53ff;stop-opacity:1;"
         offset="1"
         id="stop67" /></linearGradient><linearGradient
       id="linearGradient64"
       inkscape:collect="always"><stop
         style="stop-color:#c92eff;stop-opacity:1;"
         offset="0"
         id="stop64" /><stop
         style="stop-color:#4e006f;stop-opacity:1;"
         offset="1"
         id="stop65" /></linearGradient><linearGradient
       id="linearGradient62"
       inkscape:collect="always"><stop
         style="stop-color:#bb15ff;stop-opacity:1;"
         offset="0"
         id="stop62" /><stop
         style="stop-color:#480064;stop-opacity:1;"
         offset="1"
         id="stop63" /></linearGradient><linearGradient
       id="linearGradient60"
       inkscape:collect="always"><stop
         style="stop-color:#51006f;stop-opacity:1;"
         offset="0"
         id="stop60" /><stop
         style="stop-color:#c01eff;stop-opacity:1;"
         offset="1"
         id="stop61" /></linearGradient><linearGradient
       id="linearGradient57"
       inkscape:collect="always"><stop
         style="stop-color:#4f006f;stop-opacity:1;"
         offset="0"
         id="stop57" /><stop
         style="stop-color:#c53aff;stop-opacity:1;"
         offset="1"
         id="stop58" /></linearGradient><linearGradient
       id="linearGradient55"
       inkscape:collect="always"><stop
         style="stop-color:#bd0fff;stop-opacity:1;"
         offset="0"
         id="stop55" /><stop
         style="stop-color:#4e0070;stop-opacity:1;"
         offset="1"
         id="stop56" /></linearGradient><linearGradient
       id="linearGradient54"
       inkscape:collect="always"><stop
         style="stop-color:#c013ff;stop-opacity:1;"
         offset="0"
         id="stop53" /><stop
         style="stop-color:#67008d;stop-opacity:1;"
         offset="1"
         id="stop54" /></linearGradient><linearGradient
       id="linearGradient51"
       inkscape:collect="always"><stop
         style="stop-color:#c83aff;stop-opacity:1;"
         offset="0"
         id="stop51" /><stop
         style="stop-color:#610086;stop-opacity:1;"
         offset="1"
         id="stop52" /></linearGradient><linearGradient
       id="linearGradient46"
       inkscape:collect="always"><stop
         style="stop-color:#bf13ff;stop-opacity:1;"
         offset="0"
         id="stop46" /><stop
         style="stop-color:#6d0092;stop-opacity:1;"
         offset="1"
         id="stop47" /></linearGradient><linearGradient
       id="linearGradient44"
       inkscape:collect="always"><stop
         style="stop-color:#c73cff;stop-opacity:1;"
         offset="0"
         id="stop44" /><stop
         style="stop-color:#490068;stop-opacity:1;"
         offset="1"
         id="stop45" /></linearGradient><linearGradient
       id="linearGradient42"
       inkscape:collect="always"><stop
         style="stop-color:#c938ff;stop-opacity:1;"
         offset="0"
         id="stop42" /><stop
         style="stop-color:#50006f;stop-opacity:1;"
         offset="1"
         id="stop43" /></linearGradient><linearGradient
       inkscape:collect="always"
       xlink:href="#linearGradient42"
       id="linearGradient43"
       x1="-318.01862"
       y1="-653.32202"
       x2="-317.19354"
       y2="-713.52209"
       gradientUnits="userSpaceOnUse" /><linearGradient
       inkscape:collect="always"
       xlink:href="#linearGradient44"
       id="linearGradient45"
       x1="-168.54367"
       y1="-753.15771"
       x2="-218.99017"
       y2="-766.09155"
       gradientUnits="userSpaceOnUse" /><linearGradient
       inkscape:collect="always"
       xlink:href="#linearGradient46"
       id="linearGradient47"
       x1="-241.4995"
       y1="-904.24585"
       x2="-255.23228"
       y2="-864.20801"
       gradientUnits="userSpaceOnUse" /><linearGradient
       inkscape:collect="always"
       xlink:href="#linearGradient54"
       id="linearGradient52"
       x1="-391.41769"
       y1="-844.90485"
       x2="-358.84863"
       y2="-825.47522"
       gradientUnits="userSpaceOnUse" /><linearGradient
       inkscape:collect="always"
       xlink:href="#linearGradient51"
       id="linearGradient53"
       x1="-407.26352"
       y1="-759.1424"
       x2="-374.62003"
       y2="-767.93524"
       gradientUnits="userSpaceOnUse" /><linearGradient
       inkscape:collect="always"
       xlink:href="#linearGradient55"
       id="linearGradient56"
       x1="-317.42706"
       y1="-884.14191"
       x2="-305.66342"
       y2="-825.88135"
       gradientUnits="userSpaceOnUse" /><linearGradient
       inkscape:collect="always"
       xlink:href="#linearGradient57"
       id="linearGradient58"
       x1="-254.84084"
       y1="-808.89819"
       x2="-218.94765"
       y2="-852.66327"
       gradientUnits="userSpaceOnUse" /><linearGradient
       inkscape:collect="always"
       xlink:href="#linearGradient60"
       id="linearGradient61"
       x1="-263.43021"
       y1="-765.05829"
       x2="-218.79935"
       y2="-739.46948"
       gradientUnits="userSpaceOnUse" /><linearGradient
       inkscape:collect="always"
       xlink:href="#linearGradient62"
       id="linearGradient63"
       x1="-360.19885"
       y1="-800.7594"
       x2="-332.79245"
       y2="-786.73303"
       gradientUnits="userSpaceOnUse" /><linearGradient
       inkscape:collect="always"
       xlink:href="#linearGradient64"
       id="linearGradient65"
       x1="-322.97769"
       y1="-699.3548"
       x2="-299.01471"
       y2="-730.77521"
       gradientUnits="userSpaceOnUse" /><linearGradient
       inkscape:collect="always"
       xlink:href="#linearGradient66"
       id="linearGradient67"
       x1="-283.85303"
       y1="-805.30139"
       x2="-282.19983"
       y2="-821.29718"
       gradientUnits="userSpaceOnUse" /><linearGradient
       inkscape:collect="always"
       xlink:href="#linearGradient68"
       id="linearGradient69"
       x1="-336.32162"
       y1="-780.2713"
       x2="-319.87021"
       y2="-779.53827"
       gradientUnits="userSpaceOnUse"
       gradientTransform="matrix(1.2076143,0,0,0.73319309,66.246188,-202.41347)" /><linearGradient
       inkscape:collect="always"
       xlink:href="#linearGradient70"
       id="linearGradient71"
       x1="-307.50467"
       y1="-757.94037"
       x2="-316.84885"
       y2="-735.03009"
       gradientUnits="userSpaceOnUse" /><linearGradient
       inkscape:collect="always"
       xlink:href="#linearGradient72"
       id="linearGradient73"
       x1="-275.30786"
       y1="-754.32147"
       x2="-252.99808"
       y2="-754.32147"
       gradientUnits="userSpaceOnUse"
       gradientTransform="matrix(1,0,0,0.81220477,-2.81172,-142.07622)" /><linearGradient
       inkscape:collect="always"
       xlink:href="#linearGradient74"
       id="linearGradient75"
       x1="-301.03986"
       y1="-781.43958"
       x2="-308.2377"
       y2="-787.90875"
       gradientUnits="userSpaceOnUse"
       gradientTransform="translate(-0.23391555,1.9813562)" /><linearGradient
       inkscape:collect="always"
       xlink:href="#linearGradient76"
       id="linearGradient77"
       x1="-284.12961"
       y1="-773.87207"
       x2="-277.74704"
       y2="-763.49567"
       gradientUnits="userSpaceOnUse"
       gradientTransform="matrix(1.0491827,0,0,0.86835508,11.088757,-95.44558)" /><linearGradient
       inkscape:collect="always"
       xlink:href="#linearGradient79"
       id="linearGradient78"
       gradientUnits="userSpaceOnUse"
       gradientTransform="matrix(-1.0491827,0,0,-0.86835508,-595.96863,-1445.741)"
       x1="-286.17386"
       y1="-770.08838"
       x2="-282.96939"
       y2="-767.44714" /></defs><g
     inkscape:label="Layer 1"
     inkscape:groupmode="layer"
     id="layer1"
     transform="translate(416.6232,915.57891)"><g
       id="g114"
       transform="matrix(0.13360724,0,0,0.13368376,-360.86349,-795.67285)"
       inkscape:export-filename="../FartEngine_Main/fart_data/png/PurpleRose.png"
       inkscape:export-xdpi="96"
       inkscape:export-ydpi="96"><g
         id="g96"
         transform="matrix(0.85880527,0,0,0.85448782,-41.045049,-93.525284)"><g
           id="g61"
           transform="matrix(1.0808437,0,0,1.1270638,313.59234,97.026975)"
           style="stroke-width:44.8428;stroke-dasharray:none"><g
             id="g44"
             transform="matrix(0.59228797,0,0,0.5900546,-374.90676,-839.11634)"
             style="fill:none;fill-opacity:1;stroke:#000000;stroke-width:75.8542;stroke-linecap:square;stroke-linejoin:bevel;stroke-dasharray:none;stroke-dashoffset:0;stroke-opacity:1" /><path
             id="path61"
             style="fill:none;stroke:#000000;stroke-width:44.8428;stroke-linecap:square;stroke-linejoin:bevel;stroke-dasharray:none;stroke-dashoffset:0;stroke-opacity:1;paint-order:stroke fill markers"
             d="m -569.7147,-762.52796 c -6.70576,-21.9509 14.23642,-18.55001 17.66183,-13.42635 -5.98431,-20.83317 -32.10516,1.40354 -17.66183,13.42635 z m 13.36684,-21.98725 c 6.70576,21.9509 -14.23642,18.55001 -17.66183,13.42635 5.98431,20.83317 32.10515,-1.40353 17.66183,-13.42635 z m -19.7765,18.68142 c -1.98087,-22.09282 12.52457,-18.52384 21.36707,-23.76938 -26.86517,-7.46703 -31.63961,13.81853 -21.36707,23.76938 z m 28.5186,-9.50994 a 16.320896,15.847046 0 0 1 -16.32089,15.84705 16.320896,15.847046 0 0 1 -16.3209,-15.84705 16.320896,15.847046 0 0 1 16.3209,-15.84704 16.320896,15.847046 0 0 1 16.32089,15.84704 z m -22.94977,11.63497 c -1.6241,-1.1015 -2.20479,-2.59255 -2.26676,-4.39388 -0.0502,-1.80134 0.39527,-3.91298 0.84894,-6.2557 0.45391,-2.34273 0.90412,-4.91653 0.82658,-7.64222 -0.067,-2.72569 -0.68002,-5.60324 -2.33125,-8.55346 -17.51531,0.83932 -26.55028,3.39483 -28.44898,9.5791 -1.30762,4.25659 -5.3828,6.60255 -3.21218,9.42619 2.16929,2.82214 5.02119,3.86996 13.34843,6.63486 5.83912,1.93875 13.80541,2.00152 21.23346,1.20511 z m 16.24402,2.87791 c -2.19426,0.46855 -4.4603,-0.24018 -6.91891,-1.62844 -2.45883,-1.38827 -5.11009,-3.45609 -8.07495,-5.70563 -2.96501,-2.24954 -6.24346,-4.6808 -9.95618,-6.79599 -3.71272,-2.1152 -7.8599,-3.91434 -12.56215,-4.89958 -6.49685,15.22401 -6.98271,24.77368 0.53746,31.29413 5.17694,4.48797 6.56855,9.74959 11.3258,10.20297 4.75468,0.45314 7.41149,-1.07895 14.7716,-5.7882 5.16071,-3.30213 8.71559,-9.87101 10.87615,-16.67926 z m -0.44578,-28.77232 c 0.33149,2.27775 -0.78891,4.41088 -2.76368,6.61158 -1.97477,2.2007 -4.80426,4.46895 -7.89117,7.01695 -3.08698,2.54803 -6.43153,5.37579 -9.43662,8.69547 -3.00522,3.31968 -5.67077,7.13132 -7.40019,11.64705 17.94798,9.28658 29.60402,11.52674 38.433,5.21239 6.07681,-4.34614 12.68289,-4.76909 13.76605,-9.43744 1.08281,-4.6659 -0.50208,-7.60107 -5.46051,-15.8177 -3.47714,-5.7615 -11.13815,-10.51926 -19.24688,-13.9283 z m -33.40265,6.6141 c 3.33019,-1.02037 1.11096,1.58973 4.86404,3.1401 3.75294,1.55036 7.80651,4.02573 12.33851,6.70544 4.53207,2.67967 9.54271,5.56367 15.21023,7.93128 5.66744,2.36762 6.14385,-6.82386 13.30285,-6.20972 9.70721,-22.50129 12.71837,-24.88785 8.63378,-35.96569 -2.50399,-6.79106 -9.90604,-11.17578 -19.9034,-8.58322 -22.05727,5.71997 -14.75374,1.95373 -25.01967,8.65376 -8.00832,5.22661 -6.21772,14.38783 -9.42634,24.32805 z m 6.12868,29.78204 c -1.66659,-3.34069 -1.50091,-7.08408 -0.34119,-11.29807 1.15908,-4.214 3.31229,-8.89852 5.62063,-14.12157 2.3082,-5.22307 4.77194,-10.98459 6.55234,-17.35252 1.78038,-6.36791 2.87769,-13.34225 2.4532,-20.99082 -26.82286,-6.4879 -44.99427,-12.31213 -53.31188,4.88552 -3.51382,7.26503 -11.18843,17.41551 -11.44543,28.4558 -0.36616,15.66448 3.86777,14.9788 15.91419,26.57151 7.49977,7.21731 22.87741,2.12188 34.55862,3.85015 z m 38.3054,-25.28986 c -3.15411,3.04476 -7.34776,4.20071 -12.38462,4.42251 -5.03672,0.22173 -10.91637,-0.49079 -17.44166,-1.18279 -6.52564,-0.692 -13.69712,-1.3636 -21.3177,-1.06015 -7.6203,0.30339 -15.68985,1.58193 -24.01147,4.79011 1.5265,32.08415 -5.10545,50.27674 16.03583,55.93058 9.56151,2.55704 18.84361,7.79442 33.47866,0 15.80857,-8.41935 25.59879,-6.29087 28.82261,-25.33615 2.02532,-11.96594 -1.30327,-23.98433 -3.18165,-37.56411 z m 5.64373,-26.38871 c 1.60598,3.9965 0.97885,8.11655 -0.88871,12.58312 -1.86734,4.46661 -4.97472,9.27964 -8.32911,14.66222 -3.3546,5.38261 -6.95622,11.33469 -9.81179,18.07929 -2.85577,6.74459 -4.96543,14.2817 -5.33617,22.83428 31.27353,11.91735 45.91163,25.18749 60.03815,9.15732 6.38881,-7.24985 15.22251,-13.15083 13.81903,-29.08053 -1.51603,-17.20694 4.55779,-24.83247 -12.30141,-35.49398 -10.59271,-6.69848 -23.4453,-8.76793 -37.19069,-12.74172 z m -27.2796,-18.14495 c 4.65136,0.55245 8.2959,3.16489 11.6478,7.05967 3.3521,3.89484 6.4119,9.07202 9.89452,14.75389 3.48276,5.68185 7.38819,11.86841 12.43171,17.78197 5.04337,5.91365 11.22477,11.55427 19.25901,16.14426 27.2246,-22.05367 47.36156,-28.54657 39.07531,-49.16965 -3.74767,-9.32704 -4.96585,-20.17037 -20.98614,-26.84549 -17.3047,-7.2103 -21.57213,-16.44264 -40.32171,-6.66309 -11.7799,6.14439 -20.25,16.61608 -31.0005,26.93844 z m -44.52818,19.59357 c 3.19336,-3.27241 7.54804,-4.55988 12.82145,-4.87056 5.27354,-0.31062 11.46602,0.35562 18.33486,0.99042 6.86919,0.63477 14.41467,1.23828 22.39468,0.8022 7.97981,-0.43595 16.39409,-1.91156 25.00031,-5.4348 -2.80397,-33.96011 4.08915,-61.55656 -18.91358,-58.99966 -12.61618,1.40236 -28.85471,-5.60935 -43.90981,2.86654 -16.26183,9.15547 -22.47393,7.83273 -25.14011,28.05373 -1.67526,12.70461 6.93333,22.23685 9.4122,36.59213 z m 1.74286,34.75794 c -0.67268,-5.03162 1.2797,-9.64029 4.77417,-14.33563 3.49406,-4.69535 8.52919,-9.4773 14.02042,-14.85568 5.49116,-5.37841 11.43815,-11.35318 16.75629,-18.43406 5.31821,-7.08084 10.00728,-15.26782 12.98206,-25.07056 -32.7141,-21.71592 -52.73276,-47.14542 -66.88715,-25.81192 -7.76296,11.70061 -25.72737,20.50526 -28.84043,39.29419 -3.36264,20.29538 -9.00547,24.62814 7.36989,41.23789 10.28835,10.43569 25.07015,9.89399 39.82475,17.97577 z m 39.19591,29.47723 c -5.07271,-2.97587 -7.99985,-7.97982 -9.97559,-14.4116 -1.97553,-6.43188 -2.99988,-14.29156 -4.26674,-22.97901 -1.26721,-8.68745 -2.77693,-18.20267 -5.72376,-27.94545 -2.94683,-9.74288 -7.3307,-19.71332 -14.34601,-29.31123 -41.83864,13.58696 -78.59437,13.2806 -68.46608,40.97774 5.55503,15.19084 1.62415,37.37029 16.8024,53.47102 16.39512,17.39163 16.60012,25.47115 42.81577,22.74547 16.47092,-1.71253 25.86329,-15.20309 43.16001,-22.54694 z m 54.1854,-22.48215 c -4.46848,3.75482 -10.34259,4.95949 -17.36982,4.87865 -7.02744,-0.081 -15.2078,-1.44743 -24.28921,-2.83476 -9.08169,-1.3873 -19.06421,-2.79547 -29.69549,-2.95982 -10.63156,-0.16443 -21.9116,0.915 -33.58845,4.5029 0.0416,39.29582 -32.35771,39.07474 16.97273,74.21446 11.39363,8.1161 33.8338,3.55547 58.96795,-2.26957 23.82957,-5.52262 34.03707,-4.87143 38.97712,-29.57511 3.10377,-15.521 -7.67385,-28.03448 -9.97483,-45.95675 z m 3.83914,-84.68966 c 2.00993,6.38979 1.01353,13.22435 -1.65966,20.76223 -2.67435,7.53795 -7.02785,15.7791 -11.73454,24.98245 -4.70669,9.20337 -9.7663,19.36882 -13.85329,30.75508 -4.08699,11.38624 -7.20088,23.99335 -8.01615,38.07998 38.32705,16.42578 26.1409,51.25506 78.61692,12.84124 12.12027,-8.87233 15.96246,-34.96414 19.56706,-64.48953 3.41778,-27.9926 7.82246,-38.71787 -14.43533,-54.40263 -13.98407,-9.85454 -30.16359,-3.49057 -48.48501,-8.52882 z m -102.26223,9.06501 c 6.80498,-1.54545 13.90246,-0.20415 21.6394,2.77629 7.73696,2.98057 16.1135,7.60031 25.4766,12.61171 9.36346,5.01134 19.7136,10.41434 31.398,14.9614 11.68406,4.54718 24.70232,8.23834 39.40208,9.82606 19.40368,-35.54374 55.1626,-21.93473 17.9726,-74.10915 -8.58966,-12.05054 -35.6825,-17.21196 -66.3834,-22.34519 -29.10714,-4.8667 -40.08128,-9.67849 -57.78321,10.60886 -11.12193,12.74631 -5.39214,28.517 -11.72207,45.67002 z m 69.46297,58.81172 c -3.15411,3.04476 -7.34776,4.20071 -12.38462,4.42251 -5.03672,0.22173 -10.91637,-0.49079 -17.44166,-1.18279 -6.52564,-0.692 -13.69712,-1.3636 -21.3177,-1.06015 -7.6203,0.30339 -15.68985,1.58193 -24.01147,4.79011 1.5265,32.08415 -5.10545,50.27674 16.03583,55.93058 9.56151,2.55704 18.84361,7.79442 33.47866,0 15.80857,-8.41935 25.59879,-6.29087 28.82261,-25.33615 2.02532,-11.96594 -1.30327,-23.98433 -3.18165,-37.56411 z m -20.82073,-1.98345 c -0.44459,-0.0996 -0.50251,-0.69675 -0.32078,-1.04639 0.33272,-0.64007 1.17108,-0.69265 1.70633,-0.31231 0.79312,0.56356 0.83671,1.7438 0.2806,2.49826 -0.7452,1.01097 -2.18927,1.04793 -3.10413,0.27058 -1.1552,-0.98154 -1.18228,-2.80537 -0.24041,-3.95015 1.1434,-1.38975 3.2132,-1.40879 4.50193,-0.22884 1.52135,1.39293 1.5308,3.87008 0.20022,5.40203 -1.53823,1.77104 -4.23897,1.77154 -5.89974,0.1871 -1.88905,-1.80222 -1.88053,-4.93602 -0.16004,-6.85391 1.93176,-2.15339 5.26555,-2.13515 7.29755,-0.14536 2.25748,2.21059 2.23085,6.00259 0.11986,8.30578 -0.156,0.17021 -0.32143,0.33105 -0.49518,0.48155 m 2.31441,-5.17505 a 5.3328965,6.479769 0 0 1 -5.33289,6.47977 5.3328965,6.479769 0 0 1 -5.3329,-6.47977 5.3328965,6.479769 0 0 1 5.3329,-6.47977 5.3328965,6.479769 0 0 1 5.33289,6.47977 z" /></g><g
           id="g43"
           transform="translate(-2.617857,-2.357531)"><g
             id="g100"
             transform="matrix(0.59228797,0,0,0.5900546,-374.90676,-839.11634)"
             style="fill:none;fill-opacity:1;stroke:#000000;stroke-width:1.0141;stroke-linecap:square;stroke-linejoin:bevel;stroke-dasharray:none;stroke-dashoffset:0;stroke-opacity:1"><ellipse
               style="mix-blend-mode:normal;fill:none;fill-opacity:1;stroke:#000000;stroke-width:1.0141;stroke-linecap:square;stroke-linejoin:bevel;stroke-dasharray:none;stroke-dashoffset:0;stroke-opacity:1;paint-order:stroke fill markers"
               id="path3"
               cx="138.02002"
               cy="101.33293"
               rx="10"
               ry="12.740993" /><path
               sodipodi:type="spiral"
               style="fill:none;fill-opacity:1;fill-rule:evenodd;stroke:#000000;stroke-width:1.05834;stroke-linecap:square;stroke-linejoin:bevel;stroke-dasharray:none;stroke-dashoffset:0;stroke-opacity:1"
               id="path88"
               sodipodi:cx="132.74371"
               sodipodi:cy="128.81223"
               sodipodi:expansion="1"
               sodipodi:revolution="3"
               sodipodi:radius="12.116856"
               sodipodi:argument="-17.920834"
               sodipodi:t0="0.077254474"
               d="m 132.06306,129.45484 c -0.90802,-0.1958 -1.02632,-1.37001 -0.65514,-2.05749 0.67952,-1.25856 2.39173,-1.36193 3.48488,-0.6141 1.61982,1.10813 1.70886,3.4288 0.57307,4.91228 -1.52194,1.98784 -4.47121,2.0605 -6.33967,0.53203 -2.35929,-1.92998 -2.41459,-5.51612 -0.491,-7.76707 2.33521,-2.73263 6.56244,-2.77006 9.19446,-0.44996 3.10711,2.73888 3.12641,7.60963 0.40893,10.62186 -3.14159,3.48234 -8.6574,3.48333 -12.04926,0.36789 -3.85807,-3.54366 -3.84066,-9.70556 -0.32685,-13.47665 3.94529,-4.23416 10.75402,-4.19829 14.90404,-0.28582 4.61053,4.34661 4.55614,11.80271 0.24479,16.33144 -0.31859,0.33465 -0.65647,0.65091 -1.01132,0.94683"
               transform="matrix(0.91814195,0,0,1,15.14028,-27.00761)" /></g><path
             style="fill:#b800ff;fill-opacity:1;stroke:#000000;stroke-width:7.43845;stroke-linecap:square;stroke-linejoin:bevel;stroke-dasharray:none;stroke-dashoffset:0;stroke-opacity:1;paint-order:stroke fill markers"
             d="m -270.99874,-776.36567 c -3.50305,3.53256 -8.16065,4.8737 -13.75474,5.13104 -5.59394,0.25725 -12.12406,-0.56942 -19.37125,-1.37229 -7.24757,-0.80286 -15.21244,-1.58206 -23.67609,-1.22999 -8.46334,0.35199 -17.42563,1.83537 -26.66788,5.55753 1.69538,37.22429 -5.67027,58.33148 17.80988,64.89112 10.61931,2.96669 20.9283,9.04314 37.18244,0 17.55749,-9.76821 28.43081,-7.29872 32.01128,-29.39522 2.24939,-13.88298 -1.44745,-27.82681 -3.53364,-43.58219 z"
             id="path428"
             sodipodi:nodetypes="cssscsssc" /><path
             style="fill:url(#linearGradient47);fill-opacity:1;stroke:none;stroke-width:16.3027;stroke-linecap:square;stroke-linejoin:bevel;stroke-dasharray:none;stroke-dashoffset:0;stroke-opacity:1;paint-order:stroke fill markers"
             d="m -348.14646,-844.59951 c 7.55782,-1.79304 15.4405,-0.23686 24.03339,3.22108 8.5929,3.45808 17.89615,8.81794 28.2951,14.6322 10.39934,5.8142 21.89453,12.08281 34.87159,17.35835 12.97668,5.27567 27.43516,9.55819 43.76117,11.40027 21.55032,-41.23814 61.26528,-25.44885 19.96092,-85.98205 -9.53994,-13.98113 -39.63009,-19.96946 -73.72746,-25.92507 -32.32729,-5.64639 -44.51551,-11.22906 -64.17582,12.30849 -12.35235,14.78837 -5.98867,33.08566 -13.01889,52.98673 z"
             id="path429"
             sodipodi:nodetypes="cssscsssc" /><path
             style="fill:url(#linearGradient45);fill-opacity:1;stroke:none;stroke-width:16.3027;stroke-linecap:square;stroke-linejoin:bevel;stroke-dasharray:none;stroke-dashoffset:0;stroke-opacity:1;paint-order:stroke fill markers"
             d="m -234.57087,-855.11681 c 2.23229,7.41349 1.12566,15.343 -1.84326,24.08851 -2.97022,8.74559 -7.80535,18.30705 -13.03275,28.98485 -5.22739,10.67782 -10.84675,22.47186 -15.38589,35.6823 -4.53914,13.21041 -7.99752,27.83728 -8.90298,44.1807 42.5672,19.05733 29.03289,59.46655 87.31438,14.89852 13.46114,-10.29376 17.7284,-40.56569 21.73178,-74.82129 3.79589,-32.47725 8.68786,-44.92079 -16.03232,-63.11838 -15.53115,-11.43332 -33.50062,-4.04979 -53.84896,-9.89521 z"
             id="path430"
             sodipodi:nodetypes="cssscsssc" /><path
             style="fill:url(#linearGradient43);fill-opacity:1;stroke:none;stroke-width:16.3027;stroke-linecap:square;stroke-linejoin:bevel;stroke-dasharray:none;stroke-dashoffset:0;stroke-opacity:1;paint-order:stroke fill markers"
             d="m -238.83473,-756.85917 c -4.96283,4.35638 -11.4868,5.75405 -19.29146,5.66025 -7.80489,-0.094 -16.89026,-1.67932 -26.97635,-3.28891 -10.0864,-1.60955 -21.1733,-3.24333 -32.98073,-3.434 -11.80774,-0.19078 -24.3357,1.06158 -37.30437,5.2243 0.0462,45.59133 -35.93747,45.33483 18.85044,86.10423 12.65412,9.41636 37.57686,4.12508 65.49163,-2.63318 26.46586,-6.40739 37.80262,-5.65187 43.28919,-34.31329 3.44714,-18.00759 -8.52281,-32.52583 -11.07835,-53.3194 z"
             id="path431"
             sodipodi:nodetypes="cssscsssc" /><path
             style="fill:url(#linearGradient53);fill-opacity:1;stroke:none;stroke-width:16.3027;stroke-linecap:square;stroke-linejoin:bevel;stroke-dasharray:none;stroke-dashoffset:0;stroke-opacity:1;paint-order:stroke fill markers"
             d="m -299.01471,-730.77519 c -5.63391,-3.45263 -8.88488,-9.25825 -11.0792,-16.72046 -2.19409,-7.46232 -3.33176,-16.58118 -4.73878,-26.66043 -1.4074,-10.07926 -3.08414,-21.11889 -6.35698,-32.42255 -3.27284,-11.30377 -8.1417,-22.87155 -15.93312,-34.00713 -46.46729,15.76371 -87.28934,15.40826 -76.04055,47.54271 6.16959,17.62454 1.80383,43.35733 18.66127,62.03752 18.20893,20.17792 18.43661,29.55184 47.55252,26.38949 18.29311,-1.98689 28.72456,-17.63875 47.93484,-26.15915 z"
             id="path432"
             sodipodi:nodetypes="cssscsssc" /><path
             style="fill:url(#linearGradient52);fill-opacity:1;stroke:none;stroke-width:16.3027;stroke-linecap:square;stroke-linejoin:bevel;stroke-dasharray:none;stroke-dashoffset:0;stroke-opacity:1;paint-order:stroke fill markers"
             d="m -342.5469,-764.97492 c -0.7471,-5.83772 1.42127,-11.18474 5.30234,-16.63231 3.88061,-5.44759 9.47278,-10.99564 15.57151,-17.23568 6.09865,-6.24008 12.70356,-13.17206 18.61005,-21.38735 5.90657,-8.21525 11.1144,-17.71385 14.41828,-29.08707 -36.33329,-25.19499 -58.56663,-54.69851 -74.28694,-29.94721 -8.62178,13.57515 -28.57361,23.79038 -32.03107,45.58945 -3.73465,23.54687 -10.00175,28.57377 8.18523,47.84454 11.42656,12.10757 27.84368,11.47909 44.2306,20.85563 z"
             id="path433"
             sodipodi:nodetypes="cssscsssc" /><path
             style="fill:url(#linearGradient56);fill-opacity:1;stroke:none;stroke-width:16.3027;stroke-linecap:square;stroke-linejoin:bevel;stroke-dasharray:none;stroke-dashoffset:0;stroke-opacity:1;paint-order:stroke fill markers"
             d="m -344.48258,-805.30137 c 3.54665,-3.79667 8.38309,-5.29041 14.2399,-5.65086 5.85696,-0.36038 12.73452,0.4126 20.36327,1.14909 7.62913,0.73647 16.00937,1.43667 24.87222,0.93073 8.86262,-0.5058 18.20778,-2.21781 27.76612,-6.3055 -3.11418,-39.40081 4.54153,-71.41843 -21.00601,-68.4519 -14.01192,1.62703 -32.04693,-6.50801 -48.76759,3.32578 -18.06089,10.62226 -24.96025,9.0876 -27.92139,32.54817 -1.86059,14.74 7.70037,25.79938 10.45348,42.45449 z"
             id="path434"
             sodipodi:nodetypes="cssscsssc" /><path
             style="fill:url(#linearGradient58);fill-opacity:1;stroke:none;stroke-width:16.3027;stroke-linecap:square;stroke-linejoin:bevel;stroke-dasharray:none;stroke-dashoffset:0;stroke-opacity:1;paint-order:stroke fill markers"
             d="m -295.0282,-828.03399 c 5.16594,0.64096 9.21368,3.67193 12.9364,8.19069 3.72295,4.51883 7.12126,10.52543 10.98916,17.11759 3.86806,6.59213 8.20556,13.76982 13.80704,20.63079 5.60133,6.86106 12.46658,13.40535 21.38966,18.7307 30.23648,-25.58685 52.60121,-33.11997 43.39824,-57.04703 -4.16228,-10.82131 -5.51522,-23.40184 -23.30785,-31.14636 -19.21914,-8.36545 -23.95868,-19.07689 -44.78254,-7.73058 -13.08312,7.12877 -22.49028,19.27812 -34.43011,31.2542 z"
             id="path435"
             sodipodi:nodetypes="cssscsssc" /><path
             style="fill:url(#linearGradient61);fill-opacity:1;stroke:none;stroke-width:16.3027;stroke-linecap:square;stroke-linejoin:bevel;stroke-dasharray:none;stroke-dashoffset:0;stroke-opacity:1;paint-order:stroke fill markers"
             d="m -264.73064,-806.98207 c 1.78365,4.63678 1.08715,9.41689 -0.98702,14.59905 -2.07393,5.18219 -5.52508,10.76631 -9.25057,17.01122 -3.72572,6.24495 -7.72579,13.15061 -10.89728,20.97575 -3.17171,7.82512 -5.51476,16.56974 -5.92651,26.49252 34.73334,13.8266 50.99087,29.22273 66.68022,10.62439 7.09561,-8.41133 16.90659,-15.2577 15.34784,-33.73947 -1.68375,-19.96363 5.06203,-28.81083 -13.66232,-41.18041 -11.7646,-7.77163 -26.03908,-10.17262 -41.30513,-14.78305 z"
             id="path436"
             sodipodi:nodetypes="cssscsssc" /><path
             style="fill:url(#linearGradient65);fill-opacity:1;stroke:none;stroke-width:16.3027;stroke-linecap:square;stroke-linejoin:bevel;stroke-dasharray:none;stroke-dashoffset:0;stroke-opacity:1;paint-order:stroke fill markers"
             d="m -270.99874,-776.36567 c -3.50305,3.53256 -8.16065,4.8737 -13.75474,5.13104 -5.59394,0.25725 -12.12406,-0.56942 -19.37125,-1.37229 -7.24757,-0.80286 -15.21244,-1.58206 -23.67609,-1.22999 -8.46334,0.35199 -17.42563,1.83537 -26.66788,5.55753 1.69538,37.22429 -5.67027,58.33148 17.80988,64.89112 10.61931,2.96669 20.9283,9.04314 37.18244,0 17.55749,-9.76821 28.43081,-7.29872 32.01128,-29.39522 2.24939,-13.88298 -1.44745,-27.82681 -3.53364,-43.58219 z"
             id="path437"
             sodipodi:nodetypes="cssscsssc" /><path
             style="fill:url(#linearGradient63);fill-opacity:1;stroke:none;stroke-width:16.3027;stroke-linecap:square;stroke-linejoin:bevel;stroke-dasharray:none;stroke-dashoffset:0;stroke-opacity:1;paint-order:stroke fill markers"
             d="m -313.5419,-747.02416 c -1.85096,-3.8759 -1.66696,-8.21901 -0.37894,-13.10811 1.28732,-4.88912 3.67874,-10.32414 6.24245,-16.38397 2.56356,-6.05985 5.29987,-12.74441 7.27723,-20.13253 1.97735,-7.38811 3.19605,-15.47979 2.7246,-24.35373 -29.7903,-7.52731 -49.97203,-14.28463 -59.20982,5.66822 -3.90256,8.42895 -12.42622,20.20562 -12.71165,33.01466 -0.40667,18.17406 4.29567,17.37853 17.67479,30.82848 8.32948,8.37358 25.40836,2.46183 38.38188,4.46698 z"
             id="path438"
             sodipodi:nodetypes="cssscsssc" /><path
             style="fill:url(#linearGradient67);stroke:none;stroke-width:12.2638;stroke-linecap:square;stroke-linejoin:bevel;stroke-dasharray:none;stroke-dashoffset:0;stroke-opacity:1;paint-order:stroke fill markers"
             d="m -320.3486,-781.57753 c 3.69861,-1.18384 1.23387,1.84442 5.40215,3.64317 4.16813,1.79874 8.67015,4.67069 13.70353,7.77971 5.03346,3.10897 10.59843,6.45501 16.89295,9.20193 6.29444,2.74693 6.82356,-7.9171 14.77456,-7.20457 10.78113,-26.10618 14.12542,-28.87509 9.58894,-41.72769 -2.781,-7.87904 -11.00195,-12.96623 -22.10533,-9.95832 -24.49748,6.63636 -16.38596,2.26673 -27.78761,10.04016 -8.89429,6.06396 -6.9056,16.69289 -10.46919,28.22561 z"
             id="path439"
             sodipodi:nodetypes="cssscsssc" /><path
             style="fill:url(#linearGradient73);stroke:none;stroke-width:11.0524;stroke-linecap:square;stroke-linejoin:bevel;stroke-dasharray:none;stroke-dashoffset:0;stroke-opacity:1;paint-order:stroke fill markers"
             d="m -283.25058,-789.25126 c 0.36816,2.64266 -0.87619,5.11753 -3.06943,7.67081 -2.19324,2.55327 -5.33576,5.18491 -8.76418,8.14112 -3.4285,2.95624 -7.14306,6.23703 -10.4806,10.08856 -3.33769,3.85152 -6.29814,8.27381 -8.21888,13.513 19.93358,10.77437 32.87914,13.37342 42.68488,6.04746 6.74909,-5.04243 14.08601,-5.53314 15.289,-10.9494 1.2026,-5.41342 -0.55763,-8.81882 -6.06461,-18.35182 -3.86182,-6.68454 -12.37038,-12.20454 -21.37618,-16.15973 z"
             id="path440"
             sodipodi:nodetypes="cssscsssc" /><path
             style="fill:url(#linearGradient71);fill-opacity:1;stroke:none;stroke-width:14.2649;stroke-linecap:square;stroke-linejoin:bevel;stroke-dasharray:none;stroke-dashoffset:0;stroke-opacity:1;paint-order:stroke fill markers"
             d="m -282.75549,-755.86938 c -2.43701,0.54361 -4.95374,-0.27866 -7.68435,-1.88933 -2.73085,-1.61068 -5.67543,-4.00978 -8.96829,-6.61972 -3.29303,-2.60993 -6.93418,-5.4307 -11.05764,-7.88476 -4.12346,-2.45408 -8.72945,-4.54145 -13.95191,-5.68454 -7.21561,17.66303 -7.75522,28.74263 0.59691,36.30771 5.74967,5.20698 7.29524,11.31156 12.57879,11.83757 5.28069,0.52574 8.23143,-1.2518 16.40579,-6.71552 5.73165,-3.83115 9.67981,-11.45242 12.07939,-19.35141 z"
             id="path441"
             sodipodi:nodetypes="cssscsssc" /><path
             style="fill:url(#linearGradient69);stroke:none;stroke-width:13.4228;stroke-linecap:square;stroke-linejoin:bevel;stroke-dasharray:none;stroke-dashoffset:0;stroke-opacity:1;paint-order:stroke fill markers"
             d="m -300.7966,-759.20835 c -1.80377,-1.27798 -2.44871,-3.0079 -2.51753,-5.09782 -0.0558,-2.08993 0.439,-4.53987 0.94286,-7.25792 0.50412,-2.71805 1.00414,-5.7042 0.91802,-8.86656 -0.0744,-3.16237 -0.75525,-6.50093 -2.58916,-9.9238 -19.45304,0.97379 -29.48756,3.93871 -31.59631,11.11375 -1.45229,4.93853 -5.97831,7.66034 -3.56755,10.93635 2.40928,3.27427 5.57669,4.48996 14.82518,7.69782 6.48511,2.24935 15.33272,2.32218 23.58254,1.39818 z"
             id="path442"
             sodipodi:nodetypes="cssscsssc" /><ellipse
             style="fill:#1e0028;fill-opacity:1;stroke:none;stroke-width:7.43845;stroke-linecap:square;stroke-linejoin:bevel;stroke-dasharray:none;stroke-dashoffset:0;stroke-opacity:1;paint-order:stroke fill markers"
             id="ellipse443"
             cx="-293.43436"
             cy="-772.70734"
             rx="18.126492"
             ry="18.385874" /><path
             style="fill:url(#linearGradient75);stroke:none;stroke-width:12.227;stroke-linecap:square;stroke-linejoin:bevel;stroke-dasharray:none;stroke-dashoffset:0;stroke-opacity:1;paint-order:stroke fill markers"
             d="m -306.98151,-761.67383 c -2.20002,-25.63228 13.91017,-21.49151 23.73093,-27.57743 -29.83729,-8.66331 -35.13993,16.03237 -23.73093,27.57743 z"
             id="path444"
             sodipodi:nodetypes="ccc" /><path
             style="fill:url(#linearGradient77);stroke:none;stroke-width:7.1213;stroke-linecap:square;stroke-linejoin:bevel;stroke-dasharray:none;stroke-dashoffset:0;stroke-opacity:1;paint-order:stroke fill markers"
             d="m -285.01712,-783.34817 c 7.44762,25.46762 -15.81141,21.52188 -19.61578,15.57736 6.64636,24.17082 35.65698,-1.62839 19.61578,-15.57736 z"
             id="path445"
             sodipodi:nodetypes="ccc" /><path
             style="fill:url(#linearGradient78);stroke:none;stroke-width:7.1213;stroke-linecap:square;stroke-linejoin:bevel;stroke-dasharray:none;stroke-dashoffset:0;stroke-opacity:1;paint-order:stroke fill markers"
             d="m -299.86275,-757.83838 c -7.44762,-25.46762 15.81141,-21.52188 19.61578,-15.57736 -6.64636,-24.17082 -35.65698,1.62839 -19.61578,15.57736 z"
             id="path77"
             sodipodi:nodetypes="ccc" /></g></g></g></g></svg>
